<?xml version="1.0" standalone="no"?>
<!DOCTYPE svg PUBLIC "-//W3C//DTD SVG 20010904//EN"
 "http://www.w3.org/TR/2001/REC-SVG-20010904/DTD/svg10.dtd">
<svg version="1.0" xmlns="http://www.w3.org/2000/svg"
 width="512.000000pt" height="512.000000pt" viewBox="0 0 512.000000 512.000000"
 preserveAspectRatio="xMidYMid meet">
<metadata>
Created by potrace 1.14, written by Peter Selinger 2001-2017
</metadata>
<g transform="translate(0.000000,512.000000) scale(0.100000,-0.100000)"
fill="#000000" stroke="none">
<path d="M2529 5110 c-42 -12 -84 -48 -110 -93 l-24 -42 -1 -430 -1 -430 -104
-22 c-164 -34 -331 -95 -450 -164 -26 -15 -50 -24 -56 -20 -5 3 -76 89 -158
190 -435 534 -414 514 -522 508 -113 -6 -189 -85 -187 -197 0 -48 22 -113 43
-130 5 -4 468 -572 504 -618 7 -8 1 -20 -18 -40 -88 -86 -204 -258 -270 -396
-21 -45 -42 -76 -48 -73 -7 2 -106 30 -222 62 -116 32 -272 75 -347 96 -194
54 -245 63 -302 55 -119 -18 -192 -181 -129 -288 43 -74 62 -81 499 -201 404
-111 409 -112 407 -137 -2 -14 -4 -89 -6 -168 -3 -126 -6 -144 -23 -157 -10
-8 -23 -15 -27 -15 -16 0 -132 -95 -191 -155 -109 -112 -191 -245 -243 -395
-42 -118 -57 -206 -57 -336 l-1 -111 -30 -13 c-104 -45 -234 -156 -301 -258
-33 -50 -80 -150 -91 -197 -37 -152 -34 -285 9 -425 80 -258 291 -448 553
-495 109 -20 2874 -20 2966 0 247 53 421 208 506 450 25 72 28 93 27 210 0
114 -3 139 -26 206 -68 194 -204 335 -397 411 -57 22 -65 29 -68 54 -3 24 6
38 50 80 136 131 244 279 322 441 44 91 47 95 73 88 15 -3 131 -36 257 -72
127 -36 239 -67 250 -69 11 -2 31 -8 45 -13 72 -27 230 -64 262 -62 171 9 252
209 135 334 -40 43 -48 46 -482 167 -198 56 -367 103 -377 106 -13 4 -15 13
-11 47 8 61 7 232 0 309 l-7 67 68 20 c37 10 191 54 342 96 458 128 462 130
501 206 66 131 -28 292 -170 291 -26 -1 -136 -26 -246 -57 -110 -31 -286 -81
-392 -111 -105 -30 -196 -54 -201 -54 -5 0 -26 34 -46 76 -49 103 -150 256
-229 346 l-65 75 56 69 c31 38 110 137 176 219 67 83 123 152 126 155 24 23
161 203 174 229 19 36 23 113 7 152 -15 41 -70 98 -109 114 -66 28 -153 14
-208 -32 -12 -10 -106 -124 -210 -253 -103 -129 -193 -240 -199 -246 -5 -7
-37 -45 -69 -86 l-59 -75 -70 39 c-38 21 -75 38 -81 38 -7 0 -16 4 -22 9 -24
22 -357 124 -393 119 -38 -4 -37 -15 -37 400 1 219 -3 422 -7 451 -18 113
-143 186 -258 151z m200 -1394 c378 -37 727 -283 901 -635 92 -185 134 -364
132 -566 0 -49 -3 -103 -6 -120 -3 -16 -8 -45 -11 -63 -17 -102 -86 -291 -125
-344 -11 -15 -20 -30 -20 -34 0 -19 -131 -184 -146 -184 -7 0 -23 15 -37 33
-119 155 -314 281 -529 343 -77 23 -114 27 -218 28 -117 1 -209 -6 -243 -19
-8 -4 -20 4 -30 18 -47 73 -196 197 -312 262 -157 88 -310 127 -510 131 l-150
2 1 34 c9 402 257 793 625 987 211 110 430 152 678 127z m-979 -1572 c80 -24
137 -52 206 -100 73 -51 118 -99 180 -196 55 -83 64 -92 119 -118 51 -25 108
-25 162 -1 238 109 534 27 699 -193 86 -114 129 -233 138 -377 4 -83 19 -119
63 -161 37 -36 87 -56 148 -59 93 -5 187 -60 231 -135 86 -146 13 -330 -153
-390 -31 -11 -286 -13 -1434 -13 -1300 -1 -1400 0 -1447 17 -177 60 -267 242
-208 419 40 120 138 198 276 219 66 10 96 24 134 63 53 55 68 114 49 196 -25
108 -29 139 -27 210 5 150 56 285 150 399 102 124 242 200 439 240 45 9 224
-4 275 -20z"/>
</g>
</svg>
